<svg xmlns="http://www.w3.org/2000/svg" xml:space="preserve" width="470.59" height="512.16" viewBox="0 0 124.51 135.51"><defs><clipPath id="a"><path d="M0 700h1100V0H0z"/></clipPath></defs><g fill="#2f855a" clip-path="url(#a)" transform="matrix(.35278 0 0 -.35278 -66.611 177.44)"><path d="M512.567 351.234c0-3.17-.107-6.34-.32-9.493-.856-13.857-3.563-27.197-7.89-39.79-19.469-56.745-71.654-98.297-134.04-102.13-3.135-.23-6.306-.32-9.494-.32s-6.34.09-9.492.32c-76.248 4.684-137.23 65.668-141.92 141.92a130 130 0 0 0-.321 9.493c0 3.188.09 6.358.321 9.493 4.683 76.23 65.669 137.25 141.92 141.93a140 140 0 0 0 18.985 0V461.87h-18.985v16.404c-62.713-4.613-112.92-54.857-117.55-117.55h14.658v-18.986h-14.658c4.631-62.712 54.838-112.92 117.55-117.55v16.725h18.985v-16.725c46.327 3.42 85.866 31.74 105.21 71.6a125.9 125.9 0 0 1 12.343 45.951h-.036l8.87 18.986h15.55c.213-3.135.32-6.305.32-9.493"/><path d="m515.903 399.815-17.103 8.253-4.667-9.704-9.619-20.006-37.99-78.855-.057-.085h-37.48l-.027.057.028.085 14.77 30.65 3.785 7.854.198.426 19.21 39.869 7.37 15.253 2.276 4.753 11.725 24.387-5.777 2.761-9.59 4.638 49.971 23.25zm-191.829-57.893v-.018l-18.77-39.002-34.165 70.963-9.616 19.992h37.538l9.634-19.992zm49.033 9.213-24.902-51.712v-.02H310.63v.02l18.787 39.002 19.251 39.947 5.652 11.765 5.669-11.765 9.265-19.232zm49.419-10.265-3.785-7.854-14.798-30.591-.028-.086-25.298 52.561-9.136 18.953-9.617 20.005h37.108z"/></g><g fill="#2f855a" stroke-width=".265" aria-label="wakapi.dev"><path d="M.283 116.695h4.316l2.332 9.575 2.344-9.575h3.708l2.332 9.475 2.344-9.475h4.316l-3.66 13.891h-4.849l-2.343-9.55-2.332 9.55H3.94zm30.931 7.64q-1.39 0-2.096.471-.695.471-.695 1.39 0 .843.559 1.326.57.471 1.575.471 1.252 0 2.108-.893.856-.905.856-2.257v-.508zm6.784-1.675v7.926h-4.477v-2.06q-.893 1.266-2.01 1.849-1.116.57-2.715.57-2.158 0-3.51-1.252-1.34-1.265-1.34-3.275 0-2.443 1.674-3.584 1.687-1.14 5.284-1.14h2.617v-.348q0-1.054-.831-1.538-.831-.496-2.592-.496-1.427 0-2.654.285t-2.282.856v-3.386q1.426-.347 2.865-.52 1.438-.187 2.877-.187 3.758 0 5.42 1.489 1.674 1.475 1.674 4.812zm4.13-11.373h4.44v10.505l5.11-5.097h5.16l-6.785 6.375 7.318 7.516h-5.383l-5.42-5.792v5.792h-4.44zm23.118 13.047q-1.389 0-2.096.472-.694.471-.694 1.389 0 .843.558 1.327.57.471 1.575.471 1.252 0 2.108-.893.856-.905.856-2.257v-.508zm6.784-1.674v7.925h-4.477v-2.059q-.893 1.265-2.01 1.848-1.115.571-2.715.571-2.158 0-3.51-1.253-1.34-1.265-1.34-3.274 0-2.443 1.675-3.584 1.686-1.141 5.283-1.141h2.617v-.347q0-1.055-.831-1.538-.831-.496-2.592-.496-1.426 0-2.654.285t-2.282.856v-3.386q1.426-.347 2.865-.521 1.438-.186 2.877-.186 3.758 0 5.42 1.488 1.674 1.476 1.674 4.812zm8.57 5.916v7.293h-4.44v-19.174h4.44v2.034q.918-1.216 2.034-1.786 1.116-.583 2.568-.583 2.567 0 4.216 2.046 1.65 2.034 1.65 5.246t-1.65 5.26q-1.65 2.033-4.216 2.033-1.452 0-2.568-.57-1.116-.583-2.034-1.799zm2.952-8.992q-1.426 0-2.195 1.055-.757 1.041-.757 3.013t.757 3.027q.769 1.041 2.195 1.041t2.17-1.041q.757-1.042.757-3.027 0-1.984-.757-3.026-.744-1.042-2.17-1.042m10.79-2.89h4.44v13.892h-4.44zm0-5.407h4.44v3.622h-4.44z"/><path fill="#757575" d="M103.509 125.785h4.465v4.8h-4.465zm18.641-7.057v-7.441h4.465v19.298h-4.465v-2.01q-.918 1.228-2.022 1.799-1.103.57-2.555.57-2.567 0-4.216-2.034-1.65-2.046-1.65-5.258t1.65-5.246q1.65-2.047 4.216-2.047 1.44 0 2.543.583 1.116.57 2.034 1.786zm-2.927 8.992q1.426 0 2.17-1.042.757-1.042.757-3.026 0-1.985-.757-3.026-.744-1.042-2.17-1.042-1.414 0-2.17 1.042-.745 1.041-.745 3.026t.745 3.026q.756 1.042 2.17 1.042m25.524-4.118v1.265h-10.381q.161 1.563 1.129 2.344t2.703.782q1.402 0 2.865-.41 1.476-.421 3.026-1.265v3.423q-1.575.596-3.15.893-1.575.31-3.15.31-3.77 0-5.866-1.91-2.084-1.922-2.084-5.382 0-3.399 2.047-5.346 2.058-1.947 5.655-1.947 3.274 0 5.234 1.972 1.972 1.972 1.972 5.271zm-4.564-1.476q0-1.265-.744-2.034-.732-.781-1.923-.781-1.29 0-2.096.732-.806.719-1.004 2.083zm6.176-5.432h4.44l3.46 9.6 3.448-9.6h4.453l-5.47 13.891h-4.874z"/></g></svg>